<?xml version="1.0" encoding="utf-8"?>
<!-- Generator: Adobe Illustrator 15.1.0, SVG Export Plug-In . SVG Version: 6.00 Build 0)  -->
<!DOCTYPE svg PUBLIC "-//W3C//DTD SVG 1.1//EN" "http://www.w3.org/Graphics/SVG/1.1/DTD/svg11.dtd">
<svg version="1.1" id="Layer_1" xmlns="http://www.w3.org/2000/svg" xmlns:xlink="http://www.w3.org/1999/xlink" x="0px" y="0px"
	 width="48px" height="48px" viewBox="0 0 48 48" enable-background="new 0 0 48 48" xml:space="preserve">
<symbol  id="Video_-_Grey" viewBox="-32 -32 64 64">
	<g>
		<g>
			<radialGradient id="SVGID_1_" cx="-0.0645" cy="-22.5723" r="32.4843" gradientUnits="userSpaceOnUse">
				<stop  offset="0" style="stop-color:#E7ECEF"/>
				<stop  offset="1" style="stop-color:#BFC8CD"/>
			</radialGradient>
			<path fill="url(#SVGID_1_)" d="M0-31.5c-17.369,0-31.5,14.131-31.5,31.5S-17.369,31.5,0,31.5S31.5,17.369,31.5,0
				S17.369-31.5,0-31.5z"/>
			<g>
				<path fill="#8B98A0" d="M0,31c17.093,0,31-13.907,31-31S17.093-31,0-31S-31-17.093-31,0S-17.093,31,0,31 M0,32
					c-17.674,0-32-14.328-32-32c0-17.674,14.326-32,32-32c17.672,0,32,14.326,32,32C32,17.672,17.672,32,0,32L0,32z"/>
			</g>
		</g>
		<g opacity="0.8">
			<linearGradient id="SVGID_2_" gradientUnits="userSpaceOnUse" x1="-0.9058" y1="11.2476" x2="15.6719" y2="-52.2846">
				<stop  offset="0" style="stop-color:#FFFFFF"/>
				<stop  offset="1" style="stop-color:#B7C6CE"/>
			</linearGradient>
			<path fill="url(#SVGID_2_)" d="M21.398,22.398C26.72,16.83,29.999,9.293,29.999,1c0-17.094-13.905-31-30.999-31
				c-8.293,0-15.83,3.279-21.398,8.602C-16.75-27.309-8.801-31,0.001-31C17.095-31,31-17.096,31,0
				C31,8.801,27.308,16.75,21.398,22.398z"/>
		</g>
		<g>
			<g>
				<linearGradient id="SVGID_3_" gradientUnits="userSpaceOnUse" x1="-8.4629" y1="30.79" x2="2.9756" y2="-10.8246">
					<stop  offset="0" style="stop-color:#FFFBD4"/>
					<stop  offset="1" style="stop-color:#000000"/>
				</linearGradient>
				<path fill="url(#SVGID_3_)" d="M-7.646-5.703C3.229,3.656,17.303,12.393,29.433,5.805C26.72,19.578,14.556,30.002,0,30.002
					c-16.543,0-30-13.461-30-30.004c0-4.008,0.796-7.832,2.229-11.33C-23.013-12.529-15.613-12.562-7.646-5.703z"/>
			</g>
		</g>
		<g>
			<linearGradient id="SVGID_4_" gradientUnits="userSpaceOnUse" x1="-13.8364" y1="36.3574" x2="7.4504" y2="-25.373">
				<stop  offset="0" style="stop-color:#FFFFFF"/>
				<stop  offset="1" style="stop-color:#000000"/>
			</linearGradient>
			<path fill="url(#SVGID_4_)" d="M-27.998-2.004c0,16.543,13.457,30.004,30,30.004c7.762,0,14.846-2.965,20.178-7.82
				C16.688,26.211,8.778,30.002,0,30.002c-16.543,0-30-13.461-30-30.004c0-8.779,3.791-16.689,9.822-22.182
				C-25.033-16.85-27.998-9.768-27.998-2.004z"/>
		</g>
	</g>
	<linearGradient id="SVGID_5_" gradientUnits="userSpaceOnUse" x1="1.0015" y1="-16.7173" x2="1.0015" y2="15.2827">
		<stop  offset="0" style="stop-color:#FFFFFF"/>
		<stop  offset="1" style="stop-color:#B7C6CE"/>
	</linearGradient>
	<path opacity="0.8" fill="url(#SVGID_5_)" d="M14.708-16.881l1.999,0.002L16.686,14.89l-1.999-0.002l0.002-2.332H11.81v2.443
		H-9.745v-0.018h-0.062l0.001-2.426h-2.897l-0.001,2.314h-2l0.02-31.762l2,0.002l-0.001,2.26h2.896l0.001-2.371h0.043l0,0H11.81
		v2.371h2.896L14.708-16.881z M-6.791-12.557l-0.013,23.111H8.795l0.013-23.111H-6.791z M-12.693-2.037h2.896l0.003-4.295h-2.897
		L-12.693-2.037z M-9.798-0.036h-2.897l-0.002,4.296h2.896L-9.798-0.036z M11.798,4.26h2.896l0.003-4.296H11.8L11.798,4.26z
		 M11.802-2.037h2.896l0.003-4.295h-2.897L11.802-2.037z M14.689,10.556l0.003-4.298h-2.896l-0.002,4.297h0.015v0.001H14.689z
		 M-9.804,10.556l0.002-4.298h-2.897l-0.002,4.298H-9.804z M-12.688-12.63l-0.002,4.297h2.896l0.002-4.297H-12.688z M11.81-12.63
		v0.073h-0.003l-0.002,4.224h2.897l0.003-4.297H11.81z"/>
	<path d="M13.708-15.88l1.998,0.002l-0.021,31.769l-1.998-0.002l0.002-2.332H10.81V16h-21.557v-0.018h-0.061l0.001-2.426h-2.896
		l-0.001,2.314h-2.002l0.02-31.762l2.001,0.002l-0.001,2.26h2.896L-10.789-16h0.042l0,0H10.81v2.371h2.896L13.708-15.88z
		 M-7.792-11.556l-0.013,23.111H7.793l0.014-23.111H-7.792z M-13.694-1.036h2.896l0.003-4.295h-2.896L-13.694-1.036z M-10.799,0.965
		h-2.896l-0.003,4.296h2.896L-10.799,0.965z M10.797,5.261h2.896l0.003-4.296H10.8L10.797,5.261z M10.801-1.036h2.897l0.003-4.295
		h-2.897L10.801-1.036z M13.689,11.557l0.003-4.298h-2.896l-0.002,4.297h0.016v0.001H13.689z M-10.805,11.557l0.002-4.298h-2.896
		l-0.002,4.298H-10.805z M-13.688-11.629l-0.002,4.297h2.896l0.002-4.297H-13.688z M10.81-11.629v0.073h-0.003l-0.002,4.224h2.897
		l0.003-4.297H10.81z"/>
</symbol>
<use xlink:href="#Video_-_Grey"  width="64" height="64" x="-32" y="-32" transform="matrix(0.75 0 0 -0.75 24 24)" overflow="visible"/>
</svg>
